<?xml version="1.0" encoding="UTF-8" standalone="no"?>
<!-- Created with Inkscape (http://www.inkscape.org/) -->

<svg
   width="140mm"
   height="100mm"
   viewBox="0 0 140 100"
   version="1.1"
   id="svg1"
   xml:space="preserve"
   sodipodi:docname="aRVern_dark.svg"
   inkscape:version="1.4.3 (0d15f75, 2025-12-25)"
   inkscape:export-filename="aRVern_dark.png"
   inkscape:export-xdpi="96"
   inkscape:export-ydpi="96"
   xmlns:inkscape="http://www.inkscape.org/namespaces/inkscape"
   xmlns:sodipodi="http://sodipodi.sourceforge.net/DTD/sodipodi-0.dtd"
   xmlns="http://www.w3.org/2000/svg"
   xmlns:svg="http://www.w3.org/2000/svg"
   xmlns:rdf="http://www.w3.org/1999/02/22-rdf-syntax-ns#"
   xmlns:cc="http://creativecommons.org/ns#"
   xmlns:dc="http://purl.org/dc/elements/1.1/"><sodipodi:namedview
     id="namedview1"
     pagecolor="#0d1117"
     bordercolor="#000000"
     borderopacity="0.25"
     inkscape:showpageshadow="2"
     inkscape:pageopacity="0.0"
     inkscape:pagecheckerboard="0"
     inkscape:deskcolor="#d1d1d1"
     inkscape:document-units="mm"
     inkscape:zoom="1.0718715"
     inkscape:cx="403.96633"
     inkscape:cy="219.2427"
     inkscape:window-width="1661"
     inkscape:window-height="1045"
     inkscape:window-x="49"
     inkscape:window-y="34"
     inkscape:window-maximized="1"
     inkscape:current-layer="layer1" /><title
     id="title1">aRVern logo (dark grey)</title><desc
     id="desc1">aRVern wordmark with stylized RV mountain mark, dark grey variant for light backgrounds.</desc><defs
     id="defs1" /><g
     id="layer1"><path
       style="fill:#1a1a1a;fill-opacity:1;stroke:none;stroke-width:1.8;stroke-linecap:square;stroke-linejoin:round;stroke-dasharray:none;stroke-opacity:1;paint-order:stroke fill markers"
       d="M 37.666869,95.692537 52.791656,61.973962 88.591615,62.11272 105.38153,95.692537 Z"
       id="path51" /><path
       style="fill:#484b50;fill-opacity:1;stroke:none;stroke-width:0.752999;stroke-dasharray:none;stroke-opacity:1"
       d="M 60.658246,5.4484377 58.110442,3.9099527 4.1201898,95.638357 9.8895053,95.830667 34.312947,75.397968 44.649954,48.137633 24.561707,70.733499 42.582303,38.329793 l 8.269354,-6.92318 z"
       id="path21"
       sodipodi:nodetypes="cccccccccc" /><path
       style="fill:#c05c1a;fill-opacity:1;stroke:none;stroke-width:0.752999;stroke-dasharray:none;stroke-opacity:1"
       d="m 11.814839,54.548767 -4.8517252,8.733102 10.7177872,0.323448 5.380891,-9.05655 z"
       id="path10"
       sodipodi:nodetypes="ccccc" /><path
       style="fill:#93440e;fill-opacity:1;stroke:none;stroke-width:0.752999;stroke-dasharray:none;stroke-opacity:1"
       d="m 26.458,54.504772 -4.160835,0.205719 -5.583389,9.541724 h 4.848507 z"
       id="path11"
       sodipodi:nodetypes="ccccc" /><path
       style="fill:#4d5256;fill-opacity:1;stroke:none;stroke-width:0.752999;stroke-dasharray:none;stroke-opacity:1"
       d="m 79.392855,5.0972737 1.84175,-1.105054 29.700385,50.2606773 h -8.67826 z"
       id="path25"
       sodipodi:nodetypes="ccccc" /><path
       style="fill:#3f4448;fill-opacity:1;stroke:none;stroke-width:0.752999;stroke-dasharray:none;stroke-opacity:1"
       d="m 79.407075,4.7539547 -3.95013,1.503738 9.68189,19.3292173 -3.93286,8.559739 L 69.176075,9.3928087 53.32899,59.530702 54.948399,57.049733 69.176075,24.777205 83.982105,54.15793 h 7.301683 L 87.147225,42.815654 91.245758,30.520758 Z"
       id="path23"
       sodipodi:nodetypes="ccccccccccccc" /><path
       style="fill:#191919;fill-opacity:1;stroke:none;stroke-width:1.8;stroke-linecap:square;stroke-linejoin:round;stroke-dasharray:none;stroke-opacity:1;paint-order:stroke fill markers"
       d="M 55.064435,55.637162 69.085637,24.998241 85.443705,57.195071 Z"
       id="path50" /><path
       style="fill:#4f5257;fill-opacity:1;stroke:none;stroke-width:0.752999;stroke-dasharray:none;stroke-opacity:1"
       d="m 69.095854,10.027975 1.268181,-3.8225813 5.20669,-0.08918 10.13423,19.3481803 -4.48448,9.972424 z"
       id="path22"
       sodipodi:nodetypes="cccccc" /><g
       id="g33"
       transform="translate(-30.880335,-16.28641)"><path
         style="fill:none;stroke:#4286bd;stroke-width:1.8;stroke-linecap:butt;stroke-linejoin:round;stroke-dasharray:none;stroke-opacity:1"
         d="m 88.428475,96.722799 -0.0243,10.944871 4.011028,-0.009 v 3.46511"
         id="path1"
         sodipodi:nodetypes="cccc" /><path
         style="fill:none;stroke:#4286bd;stroke-width:1.8;stroke-linecap:square;stroke-linejoin:round;stroke-dasharray:none;stroke-opacity:1;paint-order:stroke fill markers"
         d="m 71.972727,108.01325 6.130564,-0.054 -0.01354,3.13"
         id="path2"
         sodipodi:nodetypes="ccc" /><path
         style="fill:none;stroke:#4286bd;stroke-width:1.8;stroke-linecap:square;stroke-linejoin:round;stroke-dasharray:none;stroke-opacity:1;paint-order:stroke fill markers"
         d="m 73.606573,104.81288 10.856731,-0.027 -0.02699,6.65688"
         id="path30"
         sodipodi:nodetypes="ccc" /><path
         style="fill:none;stroke:#4286bd;stroke-width:1.8;stroke-linecap:square;stroke-linejoin:round;stroke-dasharray:none;stroke-opacity:1;paint-order:stroke fill markers"
         d="m 75.105665,101.15354 h 9.37127 l -0.04062,-7.051298"
         id="path31"
         sodipodi:nodetypes="ccc" /><path
         style="fill:none;stroke:#4286bd;stroke-width:1.8;stroke-linecap:square;stroke-linejoin:round;stroke-dasharray:none;stroke-opacity:1;paint-order:stroke fill markers"
         d="m 76.882523,97.430461 3.769148,6.37e-4 -0.04053,-5.972789 13.514654,-0.02924 0.0025,-2.752753"
         id="path32"
         sodipodi:nodetypes="ccccc" /><path
         style="fill:none;stroke:#4286bd;stroke-width:1.8;stroke-linecap:square;stroke-linejoin:round;stroke-dasharray:none;stroke-opacity:1;paint-order:stroke fill markers"
         d="m 84.438113,81.688423 0.0028,7.1576"
         id="path33"
         sodipodi:nodetypes="cc" /></g><g
       id="g41"
       transform="translate(-30.880335,-16.28641)"><path
         style="fill:none;stroke:#4286bd;stroke-width:1.8;stroke-linecap:square;stroke-linejoin:round;stroke-dasharray:none;stroke-opacity:1;paint-order:stroke fill markers"
         d="m 113.52858,97.448181 3.73364,0.01095 3.80029,-3.886406 4.34979,0.0052"
         id="path36"
         sodipodi:nodetypes="cccc" /><path
         style="fill:none;stroke:#4286bd;stroke-width:1.8;stroke-linecap:square;stroke-linejoin:round;stroke-dasharray:none;stroke-opacity:1;paint-order:stroke fill markers"
         d="m 111.27333,101.1484 7.17094,-0.007 3.76013,-3.686444 5.13639,0.0023"
         id="path37"
         sodipodi:nodetypes="cccc" /><path
         style="fill:none;stroke:#4286bd;stroke-width:1.8;stroke-linecap:square;stroke-linejoin:round;stroke-dasharray:none;stroke-opacity:1;paint-order:stroke fill markers"
         d="m 108.85234,104.78513 9.61322,9.4e-4 -9.5e-4,6.88068"
         id="path38"
         sodipodi:nodetypes="ccc" /><path
         style="fill:none;stroke:#4286bd;stroke-width:1.8;stroke-linecap:square;stroke-linejoin:round;stroke-dasharray:none;stroke-opacity:1;paint-order:stroke fill markers"
         d="m 106.38433,107.94686 6.69104,-0.002 v 3.76507"
         id="path39"
         sodipodi:nodetypes="ccc" /><path
         style="fill:none;stroke:#4286bd;stroke-width:1.8;stroke-linecap:square;stroke-linejoin:round;stroke-dasharray:none;stroke-opacity:1;paint-order:stroke fill markers"
         d="m 129.49874,101.08169 h -5.16294 l -0.008,10.60813"
         id="path40"
         sodipodi:nodetypes="ccc" /><path
         style="fill:none;stroke:#4286bd;stroke-width:1.8;stroke-linecap:square;stroke-linejoin:round;stroke-dasharray:none;stroke-opacity:1;paint-order:stroke fill markers"
         d="m 130.91528,104.78229 h -2.73159 l 0.003,7.18754"
         id="path41"
         sodipodi:nodetypes="ccc" /></g><g
       id="g35"
       transform="translate(-30.880335,-16.28641)"><path
         style="fill:none;stroke:#4286bd;stroke-width:1.8;stroke-linecap:square;stroke-linejoin:round;stroke-dasharray:none;stroke-opacity:1;paint-order:stroke fill markers"
         d="m 103.46319,100.65876 -1e-5,-18.495833 h 14.95692 l 0.0334,7.478463 4.57388,-6e-6"
         id="path34"
         sodipodi:nodetypes="ccccc" /><path
         style="fill:none;stroke:#4286bd;stroke-width:1.8;stroke-linecap:square;stroke-linejoin:round;stroke-dasharray:none;stroke-opacity:1;paint-order:stroke fill markers"
         d="m 107.30796,94.448973 -0.005,-8.333576 5.17483,-4e-6"
         id="path35"
         sodipodi:nodetypes="ccc" /></g><path
       style="fill:#969a9e;fill-opacity:1;stroke:#1a1a1a;stroke-width:2.653;stroke-linecap:square;stroke-dasharray:none;stroke-opacity:1;paint-order:stroke fill markers"
       d="m 55.877851,64.928619 c 0,0 0.49714,-6.840835 9.663549,0.113733 8.699465,6.600294 3.874815,14.028677 3.874815,14.028677 0,0 -1.583893,2.85678 -3.77669,3.79715 -0.547521,0.2348 -0.08437,1.00241 0.494394,1.98907 0.578762,0.98667 1.273135,2.19238 1.998794,3.01382 1.451322,1.642888 2.028832,2.052708 3.164842,0.26754 2.77586,-4.36206 12.55744,-20.62064 12.55744,-20.62064 l 2.3793,6.741361 -13.87927,21.413757 -4.626424,0.13218 -10.318166,-16.592978 c 0,0 0.734282,0.82894 4.805694,0.0779 4.089841,-0.75447 4.69644,-5.100835 3.110237,-7.083591 -1.586201,-1.982753 -3.405995,-2.16987 -5.785298,-1.687608 -2.458024,0.498219 -3.708987,1.974905 -3.708987,1.974905 z"
       id="path29"
       sodipodi:nodetypes="cscsssscccccssscc" /><path
       style="fill:#734020;fill-opacity:1;stroke:none;stroke-width:0.752999;stroke-dasharray:none;stroke-opacity:1"
       d="m 61.390413,54.872215 h -4.777988 l -3.396205,8.733102 h 4.733994 z"
       id="path12"
       sodipodi:nodetypes="ccccc" /><path
       style="fill:#2c2f33;fill-opacity:1;stroke:none;stroke-width:0.752999;stroke-dasharray:none;stroke-opacity:1"
       d="m 94.501828,64.415543 h 13.681652 l 7.53483,7.034532 13.31516,23.765732 -23.82426,0.19829 z"
       id="path28"
       sodipodi:nodetypes="cccccc" /><path
       style="fill:#db7e41;fill-opacity:1;stroke:none;stroke-width:0.752999;stroke-dasharray:none;stroke-opacity:1"
       d="M 59.658025,4.6950917 49.896049,31.782461 53.163905,59.879905 70.605615,6.8510677 h -8.572306 z"
       id="path16"
       sodipodi:nodetypes="cccccc" /><path
       style="fill:#cb9452;fill-opacity:1;stroke:none;stroke-width:0.752999;stroke-dasharray:none;stroke-opacity:1"
       d="m 42.335144,38.03708 7.648893,-6.474916 -6.277492,18.664425 z"
       id="path19"
       sodipodi:nodetypes="cccc" /><path
       style="fill:#d0620b;fill-opacity:1;stroke:none;stroke-width:0.752999;stroke-dasharray:none;stroke-opacity:1"
       d="M 40.044704,89.199687 44.203924,65.513219 43.690802,49.894901 49.9831,31.559577 53.40662,59.755582 Z"
       id="path20"
       sodipodi:nodetypes="cccccc" /><path
       style="fill:#c05c1a;fill-opacity:1;stroke:none;stroke-width:0.752999;stroke-dasharray:none;stroke-opacity:1"
       d="m 126.80072,54.548767 -65.852311,0.323448 -3.72315,9.056552 74.750631,-0.485174 z"
       id="path13"
       sodipodi:nodetypes="ccccc" /><path
       style="fill:#3f4448;fill-opacity:1;stroke:none;stroke-width:0.753;stroke-dasharray:none;stroke-opacity:1"
       d="m 89.914061,64.330299 h 4.862287 L 105.8973,95.344597 Z"
       id="path26"
       sodipodi:nodetypes="cccc" /><path
       style="fill:#4d5256;fill-opacity:1;stroke:none;stroke-width:0.752999;stroke-dasharray:none;stroke-opacity:1"
       d="m 111.02753,64.550447 6.05156,-0.03245 17.53947,30.98413 -5.70706,-0.0682 z"
       id="path27"
       sodipodi:nodetypes="ccccc" /><path
       style="fill:#34373c;fill-opacity:1;stroke:none;stroke-width:0.752999;stroke-dasharray:none;stroke-opacity:1"
       d="m 8.5704998,95.221187 24.3418412,-20.426343 10.7942,-24.896559 1.012728,15.456136 -4.317399,23.973816 -2.376358,5.50555 z"
       id="path14"
       sodipodi:nodetypes="ccccccc" /><path
       style="fill:none;stroke:#4286bd;stroke-width:1.8;stroke-linecap:square;stroke-linejoin:round;stroke-dasharray:none;stroke-opacity:1;paint-order:stroke fill markers"
       d="M 70.036875,53.780715 V 28.82161"
       id="path42"
       sodipodi:nodetypes="cc" /><path
       style="fill:none;stroke:#4286bd;stroke-width:1.8;stroke-linecap:square;stroke-linejoin:round;stroke-dasharray:none;stroke-opacity:1;paint-order:stroke fill markers"
       d="m 63.361083,40.803101 4.872104,0.0072"
       id="path43"
       sodipodi:nodetypes="cc" /><path
       style="fill:none;stroke:#4286bd;stroke-width:1.8;stroke-linecap:square;stroke-linejoin:round;stroke-dasharray:none;stroke-opacity:1;paint-order:stroke fill markers"
       d="m 65.469604,35.813328 1.464161,1e-6"
       id="path49"
       sodipodi:nodetypes="cc" /><path
       style="fill:none;stroke:#4286bd;stroke-width:1.8;stroke-linecap:square;stroke-linejoin:round;stroke-dasharray:none;stroke-opacity:1;paint-order:stroke fill markers"
       d="m 61.503699,45.489365 4.649852,0.0072 0.01777,8.122833"
       id="path44"
       sodipodi:nodetypes="ccc" /><path
       style="fill:none;stroke:#4286bd;stroke-width:1.8;stroke-linecap:square;stroke-linejoin:round;stroke-dasharray:none;stroke-opacity:1;paint-order:stroke fill markers"
       d="m 59.937372,49.728848 2.408679,0.0072 v 4.390513"
       id="path45"
       sodipodi:nodetypes="ccc" /><path
       style="fill:none;stroke:#4286bd;stroke-width:1.8;stroke-linecap:square;stroke-linejoin:round;stroke-dasharray:none;stroke-opacity:1;paint-order:stroke fill markers"
       d="m 74.156125,53.740801 0.0148,-12.897783 2.11675,0.02199"
       id="path46"
       sodipodi:nodetypes="ccc" /><path
       style="fill:none;stroke:#4286bd;stroke-width:1.8;stroke-linecap:square;stroke-linejoin:round;stroke-dasharray:none;stroke-opacity:1;paint-order:stroke fill markers"
       d="M 74.283625,37.581446 V 35.665371"
       id="path47"
       sodipodi:nodetypes="cc" /><path
       style="fill:none;stroke:#4286bd;stroke-width:1.8;stroke-linecap:square;stroke-linejoin:round;stroke-dasharray:none;stroke-opacity:1;paint-order:stroke fill markers"
       d="m 78.582835,53.226462 0.004,-2.989501 1.74868,0.01498"
       id="path48"
       sodipodi:nodetypes="ccc" /><path
       style="fill:#d5630a;fill-opacity:1;stroke:none;stroke-width:0.752999;stroke-dasharray:none;stroke-opacity:1"
       d="m 42.365888,38.00359 1.33508,11.899848 -20.858342,23.351116 z"
       id="path15"
       sodipodi:nodetypes="cccc" /><path
       style="fill:#2c2f33;fill-opacity:1;stroke:none;stroke-width:0.752999;stroke-dasharray:none;stroke-opacity:1"
       d="m 87.074905,42.840956 3.908793,10.91526 7.72837,-0.05191 z"
       id="path24"
       sodipodi:nodetypes="cccc" /><path
       style="fill:#353a3e;fill-opacity:1;stroke:none;stroke-width:0.752999;stroke-dasharray:none;stroke-opacity:1"
       d="M 87.076525,42.848128 90.976738,29.943716 104.78705,53.769019 97.590088,53.96272 Z"
       id="path17"
       sodipodi:nodetypes="ccccc" /><path
       style="fill:#000000;fill-opacity:1;stroke:#4286bd;stroke-width:1.8;stroke-linecap:square;stroke-linejoin:round;stroke-dasharray:none;stroke-opacity:1;paint-order:stroke fill markers"
       d="m 82.282195,65.873591 3.24212,-0.0036"
       id="path53"
       sodipodi:nodetypes="cc" /><path
       style="fill:#3f4246;fill-opacity:1;stroke:none;stroke-width:0.752999;stroke-dasharray:none;stroke-opacity:1"
       d="m 107.29828,64.235011 9.12819,9.617056 -5.61797,-9.687725 z"
       id="path18"
       sodipodi:nodetypes="cccc" /><g
       id="g9"
       style="fill:#000000;fill-opacity:1"
       transform="translate(-30.880335,-16.28641)"><path
         style="fill:#000000;fill-opacity:1;stroke:none;stroke-width:0.752999;stroke-dasharray:none;stroke-opacity:1"
         d="m 32.955931,113.50753 54.343697,-94.851094 7.013901,2.895999 11.982331,-0.06685 7.00698,-3.194274 31.24394,52.360594 -2.72017,-0.01382 -29.48706,-49.203825 -5.28729,2.237457 -13.282179,0.058 -5.424951,-2.174323 -52.345872,91.957476 z"
         id="path3"
         sodipodi:nodetypes="ccccccccccccc" /><path
         style="fill:#000000;fill-opacity:1;stroke:none;stroke-width:0.752999;stroke-dasharray:none;stroke-opacity:1"
         d="m 52.769806,79.300203 -1.118161,1.798522 -15.886289,0.129497 6.51066,-11.375522 16.302178,0.101015 -0.803289,1.645795 -14.188346,0.01665 -4.483378,7.679876 z"
         id="path4"
         sodipodi:nodetypes="ccccccccc" /><path
         style="fill:#000000;fill-opacity:1;stroke:none;stroke-width:0.752999;stroke-dasharray:none;stroke-opacity:1"
         d="m 36.424631,111.12852 -1.483965,2.3847 133.591704,-0.1324 -1.29745,-2.25191 z"
         id="path5"
         sodipodi:nodetypes="ccccc" /><path
         style="fill:#000000;fill-opacity:1;stroke:none;stroke-width:0.752999;stroke-dasharray:none;stroke-opacity:1"
         d="m 70.814522,111.76599 -2.654513,-0.0135 31.964111,-72.481808 15.61801,31.303468 -2.50311,0.01491 -12.9458,-26.03695 z"
         id="path6"
         sodipodi:nodetypes="ccccccc" /><path
         style="fill:#000000;fill-opacity:1;stroke:none;stroke-width:0.752999;stroke-dasharray:none;stroke-opacity:1"
         d="m 87.611004,71.636025 0.482706,-1.838654 70.8171,-0.01132 6.63719,11.580271 -82.522696,0.02653 0.943535,-2.11908 78.194321,0.02383 -4.46773,-7.642409 z"
         id="path7"
         sodipodi:nodetypes="ccccccccc" /><path
         style="fill:#000000;fill-opacity:1;stroke:none;stroke-width:0.752999;stroke-dasharray:none;stroke-opacity:1"
         d="m 118.33122,80.371129 16.05911,31.623881 2.65966,0.0105 -15.96313,-31.615988 z"
         id="path8"
         sodipodi:nodetypes="ccccc" /><path
         style="fill:#000000;fill-opacity:1;stroke:none;stroke-width:0.752999;stroke-dasharray:none;stroke-opacity:1"
         d="m 146.46412,80.461563 h 2.66717 l 18.66069,31.630517 h -2.67124 z"
         id="path9"
         sodipodi:nodetypes="ccccc" /></g><path
       style="fill:#000000;fill-opacity:1;stroke:#4286bd;stroke-width:1.8;stroke-linecap:square;stroke-linejoin:round;stroke-dasharray:none;stroke-opacity:1;paint-order:stroke fill markers"
       d="m 53.484568,75.160479 3.626681,0.003"
       id="path52"
       sodipodi:nodetypes="cc" /></g><metadata
     id="metadata1"><rdf:RDF><cc:Work
         rdf:about=""><dc:title>aRVern logo (dark grey)</dc:title></cc:Work></rdf:RDF></metadata></svg>
