<?xml version="1.0" encoding="UTF-8" standalone="no"?>
<!-- Created with Inkscape (http://www.inkscape.org/) -->

<svg
   width="318mm"
   height="114mm"
   viewBox="0 0 318 114"
   version="1.1"
   id="svg1"
   xml:space="preserve"
   sodipodi:docname="aRVern_dark_title.svg"
   inkscape:version="1.4.3 (0d15f75, 2025-12-25)"
   inkscape:export-filename="aRVern_dark_title.png"
   inkscape:export-xdpi="96"
   inkscape:export-ydpi="96"
   xmlns:inkscape="http://www.inkscape.org/namespaces/inkscape"
   xmlns:sodipodi="http://sodipodi.sourceforge.net/DTD/sodipodi-0.dtd"
   xmlns="http://www.w3.org/2000/svg"
   xmlns:svg="http://www.w3.org/2000/svg"
   xmlns:rdf="http://www.w3.org/1999/02/22-rdf-syntax-ns#"
   xmlns:cc="http://creativecommons.org/ns#"
   xmlns:dc="http://purl.org/dc/elements/1.1/"><sodipodi:namedview
     id="namedview1"
     pagecolor="#000000"
     bordercolor="#000000"
     borderopacity="0.25"
     inkscape:showpageshadow="2"
     inkscape:pageopacity="0.0"
     inkscape:pagecheckerboard="0"
     inkscape:deskcolor="#d1d1d1"
     inkscape:document-units="mm"
     inkscape:zoom="0.43900219"
     inkscape:cx="599.08585"
     inkscape:cy="136.67358"
     inkscape:window-width="1651"
     inkscape:window-height="1045"
     inkscape:window-x="59"
     inkscape:window-y="34"
     inkscape:window-maximized="0"
     inkscape:current-layer="layer1" /><title
     id="title1">aRVern logo (dark grey)</title><desc
     id="desc1">aRVern wordmark with stylized RV mountain mark, dark grey variant for light backgrounds.</desc><defs
     id="defs1" /><g
     id="layer1"><path
       style="fill:#000000;fill-opacity:1;stroke:none;stroke-width:1.8;stroke-linecap:square;stroke-linejoin:round;stroke-dasharray:none;stroke-opacity:1;paint-order:stroke fill markers"
       d="M 45.146206,101.23727 60.270993,67.518715 96.070952,67.657473 112.86089,101.23727 Z"
       id="path51" /><path
       style="fill:#cab5a2;fill-opacity:1;stroke:none;stroke-width:0.752999;stroke-dasharray:none;stroke-opacity:1"
       d="M 68.137583,10.993191 65.589779,9.4547066 11.599524,101.18309 17.368843,101.3754 41.792284,80.942721 52.129291,53.682386 32.041044,76.278252 50.06164,43.874546 l 8.269354,-6.92318 z"
       id="path21"
       sodipodi:nodetypes="cccccccccc" /><path
       style="fill:#c05c1a;fill-opacity:1;stroke:none;stroke-width:0.752999;stroke-dasharray:none;stroke-opacity:1"
       d="m 19.294176,60.09352 -4.851726,8.733102 10.717788,0.323448 5.380891,-9.05655 z"
       id="path10"
       sodipodi:nodetypes="ccccc" /><path
       style="fill:#93440e;fill-opacity:1;stroke:none;stroke-width:0.752999;stroke-dasharray:none;stroke-opacity:1"
       d="m 33.937337,60.049525 -4.160835,0.205719 -5.583389,9.541724 h 4.848507 z"
       id="path11"
       sodipodi:nodetypes="ccccc" /><path
       style="fill:#cab5a0;fill-opacity:1;stroke:none;stroke-width:0.752999;stroke-dasharray:none;stroke-opacity:1"
       d="M 86.872192,10.642027 88.713942,9.5369733 118.41435,59.79765 h -8.67826 z"
       id="path25"
       sodipodi:nodetypes="ccccc" /><path
       style="fill:#cb9857;fill-opacity:1;stroke:none;stroke-width:0.752999;stroke-dasharray:none;stroke-opacity:1"
       d="m 86.886412,10.298708 -3.95013,1.503738 9.68189,19.329217 -3.93286,8.559739 -12.0299,-24.75384 -15.847085,49.608726 1.619409,-1.951802 14.227676,-32.272528 14.80603,29.380725 h 7.301677 L 94.626562,48.360407 98.725089,36.065511 Z"
       id="path23"
       sodipodi:nodetypes="ccccccccccccc" /><path
       style="fill:#000000;fill-opacity:1;stroke:none;stroke-width:1.8;stroke-linecap:square;stroke-linejoin:round;stroke-dasharray:none;stroke-opacity:1;paint-order:stroke fill markers"
       d="M 62.543772,61.181915 76.564974,30.542994 92.923042,62.739824 Z"
       id="path50" /><path
       style="fill:#c1a58f;fill-opacity:1;stroke:none;stroke-width:0.752999;stroke-dasharray:none;stroke-opacity:1"
       d="m 76.575191,15.572728 1.268181,-3.822581 5.20669,-0.08918 10.13423,19.34818 -4.48448,9.972424 z"
       id="path22"
       sodipodi:nodetypes="cccccc" /><g
       id="g33"
       transform="translate(-23.400998,-10.741655)"><path
         style="fill:#000000;fill-opacity:0;stroke:#4286bd;stroke-width:1.8;stroke-linecap:butt;stroke-linejoin:round;stroke-dasharray:none;stroke-opacity:1"
         d="m 88.428475,96.722799 -0.0243,10.944871 4.011028,-0.009 v 3.46511"
         id="path1"
         sodipodi:nodetypes="cccc" /><path
         style="fill:#000000;fill-opacity:0;stroke:#4286bd;stroke-width:1.8;stroke-linecap:square;stroke-linejoin:round;stroke-dasharray:none;stroke-opacity:1;paint-order:stroke fill markers"
         d="m 71.972727,108.01325 6.130564,-0.054 -0.01354,3.13"
         id="path2"
         sodipodi:nodetypes="ccc" /><path
         style="fill:#000000;fill-opacity:0;stroke:#4286bd;stroke-width:1.8;stroke-linecap:square;stroke-linejoin:round;stroke-dasharray:none;stroke-opacity:1;paint-order:stroke fill markers"
         d="m 73.606573,104.81288 10.856731,-0.027 -0.02699,6.65688"
         id="path30"
         sodipodi:nodetypes="ccc" /><path
         style="fill:#000000;fill-opacity:0;stroke:#4286bd;stroke-width:1.8;stroke-linecap:square;stroke-linejoin:round;stroke-dasharray:none;stroke-opacity:1;paint-order:stroke fill markers"
         d="m 75.105665,101.15354 h 9.37127 l -0.04062,-7.051298"
         id="path31"
         sodipodi:nodetypes="ccc" /><path
         style="fill:#000000;fill-opacity:0;stroke:#4286bd;stroke-width:1.8;stroke-linecap:square;stroke-linejoin:round;stroke-dasharray:none;stroke-opacity:1;paint-order:stroke fill markers"
         d="m 76.882523,97.430461 3.769148,6.37e-4 -0.04053,-5.972789 13.514654,-0.02924 0.0025,-2.752753"
         id="path32"
         sodipodi:nodetypes="ccccc" /><path
         style="fill:#000000;fill-opacity:0;stroke:#4286bd;stroke-width:1.8;stroke-linecap:square;stroke-linejoin:round;stroke-dasharray:none;stroke-opacity:1;paint-order:stroke fill markers"
         d="m 84.438113,81.688423 0.0028,7.1576"
         id="path33"
         sodipodi:nodetypes="cc" /></g><g
       id="g41"
       transform="translate(-23.400998,-10.741655)"><path
         style="fill:none;stroke:#4286bd;stroke-width:1.8;stroke-linecap:square;stroke-linejoin:round;stroke-dasharray:none;stroke-opacity:1;paint-order:stroke fill markers"
         d="m 113.52858,97.448181 3.73364,0.01095 3.80029,-3.886406 4.34979,0.0052"
         id="path36"
         sodipodi:nodetypes="cccc" /><path
         style="fill:none;stroke:#4286bd;stroke-width:1.8;stroke-linecap:square;stroke-linejoin:round;stroke-dasharray:none;stroke-opacity:1;paint-order:stroke fill markers"
         d="m 111.27333,101.1484 7.17094,-0.007 3.76013,-3.686444 5.13639,0.0023"
         id="path37"
         sodipodi:nodetypes="cccc" /><path
         style="fill:none;stroke:#4286bd;stroke-width:1.8;stroke-linecap:square;stroke-linejoin:round;stroke-dasharray:none;stroke-opacity:1;paint-order:stroke fill markers"
         d="m 108.85234,104.78513 9.61322,9.4e-4 -9.5e-4,6.88068"
         id="path38"
         sodipodi:nodetypes="ccc" /><path
         style="fill:none;stroke:#4286bd;stroke-width:1.8;stroke-linecap:square;stroke-linejoin:round;stroke-dasharray:none;stroke-opacity:1;paint-order:stroke fill markers"
         d="m 106.38433,107.94686 6.69104,-0.002 v 3.76507"
         id="path39"
         sodipodi:nodetypes="ccc" /><path
         style="fill:none;stroke:#4286bd;stroke-width:1.8;stroke-linecap:square;stroke-linejoin:round;stroke-dasharray:none;stroke-opacity:1;paint-order:stroke fill markers"
         d="m 129.49874,101.08169 h -5.16294 l -0.008,10.60813"
         id="path40"
         sodipodi:nodetypes="ccc" /><path
         style="fill:none;stroke:#4286bd;stroke-width:1.8;stroke-linecap:square;stroke-linejoin:round;stroke-dasharray:none;stroke-opacity:1;paint-order:stroke fill markers"
         d="m 130.91528,104.78229 h -2.73159 l 0.003,7.18754"
         id="path41"
         sodipodi:nodetypes="ccc" /></g><g
       id="g35"
       transform="translate(-23.400998,-10.741655)"><path
         style="fill:none;stroke:#4286bd;stroke-width:1.8;stroke-linecap:square;stroke-linejoin:round;stroke-dasharray:none;stroke-opacity:1;paint-order:stroke fill markers"
         d="m 103.46319,100.65876 -1e-5,-18.495833 h 14.95692 l 0.0334,7.478463 4.57388,-6e-6"
         id="path34"
         sodipodi:nodetypes="ccccc" /><path
         style="fill:none;stroke:#4286bd;stroke-width:1.8;stroke-linecap:square;stroke-linejoin:round;stroke-dasharray:none;stroke-opacity:1;paint-order:stroke fill markers"
         d="m 107.30796,94.448973 -0.005,-8.333576 5.17483,-4e-6"
         id="path35"
         sodipodi:nodetypes="ccc" /></g><path
       style="mix-blend-mode:normal;fill:#ffffff;fill-opacity:1;stroke:#000000;stroke-width:2.653;stroke-linecap:square;stroke-dasharray:none;stroke-opacity:1;paint-order:stroke fill markers"
       d="m 63.357188,70.473372 c 0,0 0.49714,-6.840835 9.663549,0.113733 8.699465,6.600294 3.874815,14.028679 3.874815,14.028679 0,0 -1.583893,2.856776 -3.77669,3.797143 -0.547521,0.234801 -0.08437,1.002418 0.494394,1.989078 0.578762,0.98667 1.273135,2.19238 1.998794,3.013824 1.451322,1.642871 2.028832,2.052698 3.164842,0.267537 2.77586,-4.362061 12.55744,-20.620644 12.55744,-20.620644 l 2.3793,6.741361 L 79.834362,101.21782 75.207938,101.35 64.889772,84.757043 c 0,0 0.734282,0.828938 4.805694,0.07786 4.089841,-0.754475 4.69644,-5.100836 3.110237,-7.083592 -1.586201,-1.982753 -3.405995,-2.16987 -5.785298,-1.687608 -2.458024,0.498219 -3.708987,1.974905 -3.708987,1.974905 z"
       id="path29"
       sodipodi:nodetypes="cscsssscccccssscc" /><path
       style="fill:#734020;fill-opacity:1;stroke:none;stroke-width:0.752999;stroke-dasharray:none;stroke-opacity:1"
       d="m 68.86975,60.416968 h -4.777988 l -3.396205,8.733102 h 4.733994 z"
       id="path12"
       sodipodi:nodetypes="ccccc" /><path
       style="fill:#886f59;fill-opacity:1;stroke:none;stroke-width:0.752999;stroke-dasharray:none;stroke-opacity:1"
       d="m 101.98116,69.960296 h 13.68168 l 7.53483,7.034532 13.31516,23.765712 -23.82426,0.19829 z"
       id="path28"
       sodipodi:nodetypes="cccccc" /><path
       style="fill:#db7e41;fill-opacity:1;stroke:none;stroke-width:0.752999;stroke-dasharray:none;stroke-opacity:1"
       d="m 67.137362,10.239845 -9.761976,27.087369 3.267856,28.097444 17.44171,-53.028837 h -8.572306 z"
       id="path16"
       sodipodi:nodetypes="cccccc" /><path
       style="fill:#cb9452;fill-opacity:1;stroke:none;stroke-width:0.752999;stroke-dasharray:none;stroke-opacity:1"
       d="m 49.814481,43.581833 7.648893,-6.474916 -6.277492,18.664425 z"
       id="path19"
       sodipodi:nodetypes="cccc" /><path
       style="fill:#d0620b;fill-opacity:1;stroke:none;stroke-width:0.752999;stroke-dasharray:none;stroke-opacity:1"
       d="m 47.524041,94.74444 4.15922,-23.686468 -0.513122,-15.618318 6.292298,-18.335324 3.42352,28.196005 z"
       id="path20"
       sodipodi:nodetypes="cccccc" /><path
       style="fill:#c05c1a;fill-opacity:1;stroke:none;stroke-width:0.752999;stroke-dasharray:none;stroke-opacity:1"
       d="m 134.28008,60.09352 -65.852334,0.323448 -3.72315,9.056552 74.750654,-0.485174 z"
       id="path13"
       sodipodi:nodetypes="ccccc" /><path
       style="fill:#cb9857;fill-opacity:1;stroke:none;stroke-width:0.753;stroke-dasharray:none;stroke-opacity:1"
       d="m 97.393405,69.875052 h 4.862275 l 11.12098,31.014278 z"
       id="path26"
       sodipodi:nodetypes="cccc" /><path
       style="fill:#cab5a0;fill-opacity:1;stroke:none;stroke-width:0.752999;stroke-dasharray:none;stroke-opacity:1"
       d="m 118.50689,70.0952 6.05156,-0.03245 17.53947,30.98411 -5.70706,-0.0682 z"
       id="path27"
       sodipodi:nodetypes="ccccc" /><path
       style="fill:#a18b74;fill-opacity:1;stroke:none;stroke-width:0.752999;stroke-dasharray:none;stroke-opacity:1"
       d="m 16.049837,100.76592 24.341841,-20.426323 10.7942,-24.896559 1.012728,15.456136 -4.317399,23.973806 -2.376358,5.50554 z"
       id="path14"
       sodipodi:nodetypes="ccccccc" /><path
       style="fill:none;stroke:#4286bd;stroke-width:1.8;stroke-linecap:square;stroke-linejoin:round;stroke-dasharray:none;stroke-opacity:1;paint-order:stroke fill markers"
       d="M 77.516212,59.325468 V 34.366363"
       id="path42"
       sodipodi:nodetypes="cc" /><path
       style="fill:none;stroke:#4286bd;stroke-width:1.8;stroke-linecap:square;stroke-linejoin:round;stroke-dasharray:none;stroke-opacity:1;paint-order:stroke fill markers"
       d="m 70.84042,46.347854 4.872104,0.0072"
       id="path43"
       sodipodi:nodetypes="cc" /><path
       style="fill:none;stroke:#4286bd;stroke-width:1.8;stroke-linecap:square;stroke-linejoin:round;stroke-dasharray:none;stroke-opacity:1;paint-order:stroke fill markers"
       d="m 72.948941,41.358081 1.464161,1e-6"
       id="path49"
       sodipodi:nodetypes="cc" /><path
       style="fill:none;stroke:#4286bd;stroke-width:1.8;stroke-linecap:square;stroke-linejoin:round;stroke-dasharray:none;stroke-opacity:1;paint-order:stroke fill markers"
       d="m 68.983036,51.034118 4.649852,0.0072 0.01777,8.122833"
       id="path44"
       sodipodi:nodetypes="ccc" /><path
       style="fill:none;stroke:#4286bd;stroke-width:1.8;stroke-linecap:square;stroke-linejoin:round;stroke-dasharray:none;stroke-opacity:1;paint-order:stroke fill markers"
       d="m 67.416709,55.273601 2.408679,0.0072 v 4.390513"
       id="path45"
       sodipodi:nodetypes="ccc" /><path
       style="fill:none;stroke:#4286bd;stroke-width:1.8;stroke-linecap:square;stroke-linejoin:round;stroke-dasharray:none;stroke-opacity:1;paint-order:stroke fill markers"
       d="m 81.635462,59.285554 0.0148,-12.897783 2.11675,0.02199"
       id="path46"
       sodipodi:nodetypes="ccc" /><path
       style="fill:none;stroke:#4286bd;stroke-width:1.8;stroke-linecap:square;stroke-linejoin:round;stroke-dasharray:none;stroke-opacity:1;paint-order:stroke fill markers"
       d="M 81.762962,43.126199 V 41.210124"
       id="path47"
       sodipodi:nodetypes="cc" /><path
       style="fill:none;stroke:#4286bd;stroke-width:1.8;stroke-linecap:square;stroke-linejoin:round;stroke-dasharray:none;stroke-opacity:1;paint-order:stroke fill markers"
       d="m 86.062172,58.771215 0.004,-2.989501 1.74868,0.01498"
       id="path48"
       sodipodi:nodetypes="ccc" /><path
       style="fill:#d5630a;fill-opacity:1;stroke:none;stroke-width:0.752999;stroke-dasharray:none;stroke-opacity:1"
       d="m 49.845225,43.548343 1.33508,11.899848 -20.858342,23.351116 z"
       id="path15"
       sodipodi:nodetypes="cccc" /><path
       style="fill:#886f59;fill-opacity:1;stroke:none;stroke-width:0.752999;stroke-dasharray:none;stroke-opacity:1"
       d="m 94.554242,48.385709 3.908787,10.91526 7.728391,-0.05191 z"
       id="path24"
       sodipodi:nodetypes="cccc" /><path
       style="fill:#ba7b41;fill-opacity:1;stroke:none;stroke-width:0.752999;stroke-dasharray:none;stroke-opacity:1"
       d="m 94.555862,48.392881 3.900207,-12.904412 13.810341,23.825303 -7.19698,0.193701 z"
       id="path17"
       sodipodi:nodetypes="ccccc" /><path
       style="fill:#000000;fill-opacity:1;stroke:#4286bd;stroke-width:1.8;stroke-linecap:square;stroke-linejoin:round;stroke-dasharray:none;stroke-opacity:1;paint-order:stroke fill markers"
       d="m 89.761532,71.418344 3.24212,-0.0036"
       id="path53"
       sodipodi:nodetypes="cc" /><path
       style="fill:#ba7b41;fill-opacity:1;stroke:none;stroke-width:0.752999;stroke-dasharray:none;stroke-opacity:1"
       d="m 114.77764,69.779764 9.12819,9.617056 -5.61797,-9.687725 z"
       id="path18"
       sodipodi:nodetypes="cccc" /><g
       id="g9"
       style="fill:#000000;fill-opacity:1"
       transform="translate(-23.400998,-10.741655)"><path
         style="fill:#000000;fill-opacity:1;stroke:none;stroke-width:0.752999;stroke-dasharray:none;stroke-opacity:1"
         d="m 32.955931,113.50753 54.343697,-94.851094 7.013901,2.895999 11.982331,-0.06685 7.00698,-3.194274 31.24394,52.360594 -2.72017,-0.01382 -29.48706,-49.203825 -5.28729,2.237457 -13.282179,0.058 -5.424951,-2.174323 -52.345872,91.957476 z"
         id="path3"
         sodipodi:nodetypes="ccccccccccccc" /><path
         style="fill:#000000;fill-opacity:1;stroke:none;stroke-width:0.752999;stroke-dasharray:none;stroke-opacity:1"
         d="m 52.769806,79.300203 -1.118161,1.798522 -15.886289,0.129497 6.51066,-11.375522 16.302178,0.101015 -0.803289,1.645795 -14.188346,0.01665 -4.483378,7.679876 z"
         id="path4"
         sodipodi:nodetypes="ccccccccc" /><path
         style="fill:#000000;fill-opacity:1;stroke:none;stroke-width:0.752999;stroke-dasharray:none;stroke-opacity:1"
         d="m 36.424631,111.12852 -1.483965,2.3847 133.591704,-0.1324 -1.29745,-2.25191 z"
         id="path5"
         sodipodi:nodetypes="ccccc" /><path
         style="fill:#000000;fill-opacity:1;stroke:none;stroke-width:0.752999;stroke-dasharray:none;stroke-opacity:1"
         d="m 70.814522,111.76599 -2.654513,-0.0135 31.964111,-72.481808 15.61801,31.303468 -2.50311,0.01491 -12.9458,-26.03695 z"
         id="path6"
         sodipodi:nodetypes="ccccccc" /><path
         style="fill:#000000;fill-opacity:1;stroke:none;stroke-width:0.752999;stroke-dasharray:none;stroke-opacity:1"
         d="m 87.611004,71.636025 0.482706,-1.838654 70.8171,-0.01132 6.63719,11.580271 -82.522696,0.02653 0.943535,-2.11908 78.194321,0.02383 -4.46773,-7.642409 z"
         id="path7"
         sodipodi:nodetypes="ccccccccc" /><path
         style="fill:#000000;fill-opacity:1;stroke:none;stroke-width:0.752999;stroke-dasharray:none;stroke-opacity:1"
         d="m 118.33122,80.371129 16.05911,31.623881 2.65966,0.0105 -15.96313,-31.615988 z"
         id="path8"
         sodipodi:nodetypes="ccccc" /><path
         style="fill:#000000;fill-opacity:1;stroke:none;stroke-width:0.752999;stroke-dasharray:none;stroke-opacity:1"
         d="m 146.46412,80.461563 h 2.66717 l 18.66069,31.630517 h -2.67124 z"
         id="path9"
         sodipodi:nodetypes="ccccc" /></g><path
       style="fill:#000000;fill-opacity:0;stroke:#4286bd;stroke-width:1.8;stroke-linecap:square;stroke-linejoin:round;stroke-dasharray:none;stroke-opacity:1;paint-order:stroke fill markers"
       d="m 60.963905,80.705232 3.626681,0.003"
       id="path52"
       sodipodi:nodetypes="cc" /><text
       xml:space="preserve"
       style="font-style:normal;font-variant:normal;font-weight:bold;font-stretch:normal;font-size:56.557px;font-family:'IBM Plex Sans';-inkscape-font-specification:'IBM Plex Sans, Bold';font-variant-ligatures:normal;font-variant-caps:normal;font-variant-numeric:normal;font-variant-east-asian:normal;writing-mode:lr-tb;direction:ltr;fill:#eef5fc;fill-opacity:1;stroke-width:1.00791;paint-order:stroke fill markers"
       x="145.07364"
       y="100.36227"
       id="text1"><tspan
         sodipodi:role="line"
         id="tspan1"
         style="font-style:normal;font-variant:normal;font-weight:bold;font-stretch:normal;font-size:56.557px;font-family:'IBM Plex Sans';-inkscape-font-specification:'IBM Plex Sans, Bold';font-variant-ligatures:normal;font-variant-caps:normal;font-variant-numeric:normal;font-variant-east-asian:normal;fill:#ebf5ff;fill-opacity:1;stroke-width:1.00791"
         x="145.07364"
         y="100.36227">RVern</tspan></text></g><metadata
     id="metadata1"><rdf:RDF><cc:Work
         rdf:about=""><dc:title>aRVern logo (dark grey)</dc:title></cc:Work></rdf:RDF></metadata></svg>
