<?xml version="1.0" encoding="UTF-8" standalone="no"?>
<!-- Created with Inkscape (http://www.inkscape.org/) -->

<svg
   width="140mm"
   height="133mm"
   viewBox="0 0 140 133"
   version="1.1"
   id="svg1"
   xml:space="preserve"
   sodipodi:docname="aRVern_light_label.svg"
   inkscape:version="1.4.3 (0d15f75, 2025-12-25)"
   inkscape:export-filename="aRVern_light_label.png"
   inkscape:export-xdpi="96"
   inkscape:export-ydpi="96"
   xmlns:inkscape="http://www.inkscape.org/namespaces/inkscape"
   xmlns:sodipodi="http://sodipodi.sourceforge.net/DTD/sodipodi-0.dtd"
   xmlns="http://www.w3.org/2000/svg"
   xmlns:svg="http://www.w3.org/2000/svg"
   xmlns:rdf="http://www.w3.org/1999/02/22-rdf-syntax-ns#"
   xmlns:cc="http://creativecommons.org/ns#"
   xmlns:dc="http://purl.org/dc/elements/1.1/"><sodipodi:namedview
     id="namedview1"
     pagecolor="#ffffff"
     bordercolor="#000000"
     borderopacity="0.25"
     inkscape:showpageshadow="2"
     inkscape:pageopacity="0.0"
     inkscape:pagecheckerboard="0"
     inkscape:deskcolor="#d1d1d1"
     inkscape:document-units="mm"
     inkscape:zoom="0.76168343"
     inkscape:cx="299.9934"
     inkscape:cy="192.99356"
     inkscape:window-width="1651"
     inkscape:window-height="1045"
     inkscape:window-x="59"
     inkscape:window-y="34"
     inkscape:window-maximized="0"
     inkscape:current-layer="layer1" /><title
     id="title1">aRVern logo (dark grey)</title><desc
     id="desc1">aRVern wordmark with stylized RV mountain mark, dark grey variant for light backgrounds.</desc><defs
     id="defs1" /><g
     id="layer1"><path
       style="fill:#000000;fill-opacity:1;stroke:none;stroke-width:1.8;stroke-linecap:square;stroke-linejoin:round;stroke-dasharray:none;stroke-opacity:1;paint-order:stroke fill markers"
       d="M 37.737868,95.416427 52.862655,61.697878 88.662614,61.836636 105.45251,95.416427 Z"
       id="path51" /><path
       style="fill:#cab5a2;fill-opacity:1;stroke:none;stroke-width:0.752999;stroke-dasharray:none;stroke-opacity:1"
       d="M 60.729245,5.172357 58.181441,3.6338729 4.1911893,95.362247 9.9605053,95.554557 34.383946,75.121884 44.720953,47.861549 24.632706,70.457415 42.653302,38.053709 l 8.269354,-6.92318 z"
       id="path21"
       sodipodi:nodetypes="cccccccccc" /><path
       style="fill:#c05c1a;fill-opacity:1;stroke:none;stroke-width:0.752999;stroke-dasharray:none;stroke-opacity:1"
       d="M 11.885838,54.272683 7.0341138,63.005785 17.7519,63.329233 23.132791,54.272683 Z"
       id="path10"
       sodipodi:nodetypes="ccccc" /><path
       style="fill:#93440e;fill-opacity:1;stroke:none;stroke-width:0.752999;stroke-dasharray:none;stroke-opacity:1"
       d="m 26.528999,54.228688 -4.160835,0.205719 -5.583389,9.541724 h 4.848507 z"
       id="path11"
       sodipodi:nodetypes="ccccc" /><path
       style="fill:#cab5a0;fill-opacity:1;stroke:none;stroke-width:0.752999;stroke-dasharray:none;stroke-opacity:1"
       d="m 79.463854,4.821193 1.84175,-1.1050534 29.700366,50.2606734 h -8.67826 z"
       id="path25"
       sodipodi:nodetypes="ccccc" /><path
       style="fill:#cb9857;fill-opacity:1;stroke:none;stroke-width:0.752999;stroke-dasharray:none;stroke-opacity:1"
       d="m 79.478074,4.4778743 -3.95013,1.5037371 9.68189,19.3292146 -3.93286,8.559739 -12.0299,-24.7538394 -15.847085,49.6087254 1.619409,-1.951802 14.227676,-32.272528 14.80603,29.380725 h 7.301677 L 87.218224,42.53957 91.316751,30.244674 Z"
       id="path23"
       sodipodi:nodetypes="ccccccccccccc" /><path
       style="fill:#000000;fill-opacity:1;stroke:none;stroke-width:1.8;stroke-linecap:square;stroke-linejoin:round;stroke-dasharray:none;stroke-opacity:1;paint-order:stroke fill markers"
       d="M 55.135434,55.361078 69.156636,24.722157 85.514704,56.918987 Z"
       id="path50" /><path
       style="fill:#c1a58f;fill-opacity:1;stroke:none;stroke-width:0.752999;stroke-dasharray:none;stroke-opacity:1"
       d="m 69.166853,9.7518913 1.268181,-3.8225789 5.20669,-0.08918 10.13423,19.3481776 -4.48448,9.972424 z"
       id="path22"
       sodipodi:nodetypes="cccccc" /><g
       id="g33"
       transform="translate(-30.809336,-16.562492)"><path
         style="fill:#000000;fill-opacity:0;stroke:#4286bd;stroke-width:1.8;stroke-linecap:butt;stroke-linejoin:round;stroke-dasharray:none;stroke-opacity:1"
         d="m 88.428475,96.722799 -0.0243,10.944871 4.011028,-0.009 v 3.46511"
         id="path1"
         sodipodi:nodetypes="cccc" /><path
         style="fill:#000000;fill-opacity:0;stroke:#4286bd;stroke-width:1.8;stroke-linecap:square;stroke-linejoin:round;stroke-dasharray:none;stroke-opacity:1;paint-order:stroke fill markers"
         d="m 71.972727,108.01325 6.130564,-0.054 -0.01354,3.13"
         id="path2"
         sodipodi:nodetypes="ccc" /><path
         style="fill:#000000;fill-opacity:0;stroke:#4286bd;stroke-width:1.8;stroke-linecap:square;stroke-linejoin:round;stroke-dasharray:none;stroke-opacity:1;paint-order:stroke fill markers"
         d="m 73.606573,104.81288 10.856731,-0.027 -0.02699,6.65688"
         id="path30"
         sodipodi:nodetypes="ccc" /><path
         style="fill:#000000;fill-opacity:0;stroke:#4286bd;stroke-width:1.8;stroke-linecap:square;stroke-linejoin:round;stroke-dasharray:none;stroke-opacity:1;paint-order:stroke fill markers"
         d="m 75.105665,101.15354 h 9.37127 l -0.04062,-7.051298"
         id="path31"
         sodipodi:nodetypes="ccc" /><path
         style="fill:#000000;fill-opacity:0;stroke:#4286bd;stroke-width:1.8;stroke-linecap:square;stroke-linejoin:round;stroke-dasharray:none;stroke-opacity:1;paint-order:stroke fill markers"
         d="m 76.882523,97.430461 3.769148,6.37e-4 -0.04053,-5.972789 13.514654,-0.02924 0.0025,-2.752753"
         id="path32"
         sodipodi:nodetypes="ccccc" /><path
         style="fill:#000000;fill-opacity:0;stroke:#4286bd;stroke-width:1.8;stroke-linecap:square;stroke-linejoin:round;stroke-dasharray:none;stroke-opacity:1;paint-order:stroke fill markers"
         d="m 84.438113,81.688423 0.0028,7.1576"
         id="path33"
         sodipodi:nodetypes="cc" /></g><g
       id="g41"
       transform="translate(-30.809336,-16.562492)"><path
         style="fill:none;stroke:#4286bd;stroke-width:1.8;stroke-linecap:square;stroke-linejoin:round;stroke-dasharray:none;stroke-opacity:1;paint-order:stroke fill markers"
         d="m 113.52858,97.448181 3.73364,0.01095 3.80029,-3.886406 4.34979,0.0052"
         id="path36"
         sodipodi:nodetypes="cccc" /><path
         style="fill:none;stroke:#4286bd;stroke-width:1.8;stroke-linecap:square;stroke-linejoin:round;stroke-dasharray:none;stroke-opacity:1;paint-order:stroke fill markers"
         d="m 111.27333,101.1484 7.17094,-0.007 3.76013,-3.686444 5.13639,0.0023"
         id="path37"
         sodipodi:nodetypes="cccc" /><path
         style="fill:none;stroke:#4286bd;stroke-width:1.8;stroke-linecap:square;stroke-linejoin:round;stroke-dasharray:none;stroke-opacity:1;paint-order:stroke fill markers"
         d="m 108.85234,104.78513 9.61322,9.4e-4 -9.5e-4,6.88068"
         id="path38"
         sodipodi:nodetypes="ccc" /><path
         style="fill:none;stroke:#4286bd;stroke-width:1.8;stroke-linecap:square;stroke-linejoin:round;stroke-dasharray:none;stroke-opacity:1;paint-order:stroke fill markers"
         d="m 106.38433,107.94686 6.69104,-0.002 v 3.76507"
         id="path39"
         sodipodi:nodetypes="ccc" /><path
         style="fill:none;stroke:#4286bd;stroke-width:1.8;stroke-linecap:square;stroke-linejoin:round;stroke-dasharray:none;stroke-opacity:1;paint-order:stroke fill markers"
         d="m 129.49874,101.08169 h -5.16294 l -0.008,10.60813"
         id="path40"
         sodipodi:nodetypes="ccc" /><path
         style="fill:none;stroke:#4286bd;stroke-width:1.8;stroke-linecap:square;stroke-linejoin:round;stroke-dasharray:none;stroke-opacity:1;paint-order:stroke fill markers"
         d="m 130.91528,104.78229 h -2.73159 l 0.003,7.18754"
         id="path41"
         sodipodi:nodetypes="ccc" /></g><g
       id="g35"
       transform="translate(-30.809336,-16.562492)"><path
         style="fill:none;stroke:#4286bd;stroke-width:1.8;stroke-linecap:square;stroke-linejoin:round;stroke-dasharray:none;stroke-opacity:1;paint-order:stroke fill markers"
         d="m 103.46319,100.65876 -1e-5,-18.495833 h 14.95692 l 0.0334,7.478463 4.57388,-6e-6"
         id="path34"
         sodipodi:nodetypes="ccccc" /><path
         style="fill:none;stroke:#4286bd;stroke-width:1.8;stroke-linecap:square;stroke-linejoin:round;stroke-dasharray:none;stroke-opacity:1;paint-order:stroke fill markers"
         d="m 107.30796,94.448973 -0.005,-8.333576 5.17483,-4e-6"
         id="path35"
         sodipodi:nodetypes="ccc" /></g><path
       style="mix-blend-mode:normal;fill:#ffffff;fill-opacity:1;stroke:#000000;stroke-width:2.653;stroke-linecap:square;stroke-dasharray:none;stroke-opacity:1;paint-order:stroke fill markers"
       d="m 55.94885,64.652535 c 0,0 0.49714,-6.840835 9.663549,0.113733 8.699465,6.600294 3.874815,14.028679 3.874815,14.028679 0,0 -1.583893,2.856776 -3.77669,3.797143 -0.547521,0.234801 -0.08437,1.002418 0.494394,1.989078 0.578762,0.98667 1.273135,2.19238 1.998794,3.013824 1.451322,1.642871 2.028832,2.052698 3.164842,0.267537 2.77586,-4.362061 12.55744,-20.620644 12.55744,-20.620644 l 2.3793,6.741361 -13.87927,21.413731 -4.626424,0.13218 -10.318166,-16.592951 c 0,0 0.734282,0.828938 4.805694,0.07786 4.089841,-0.754475 4.69644,-5.100836 3.110237,-7.083592 -1.586201,-1.982753 -3.405995,-2.16987 -5.785298,-1.687608 -2.458024,0.498219 -3.708987,1.974905 -3.708987,1.974905 z"
       id="path29"
       sodipodi:nodetypes="cscsssscccccssscc" /><path
       style="fill:#734020;fill-opacity:1;stroke:none;stroke-width:0.752999;stroke-dasharray:none;stroke-opacity:1"
       d="m 61.461412,54.596131 h -4.777988 l -3.396205,8.733102 h 4.733994 z"
       id="path12"
       sodipodi:nodetypes="ccccc" /><path
       style="fill:#886f59;fill-opacity:1;stroke:none;stroke-width:0.752999;stroke-dasharray:none;stroke-opacity:1"
       d="m 94.572813,64.139459 h 13.681647 l 7.53483,7.034532 13.31516,23.765709 -23.82426,0.19829 z"
       id="path28"
       sodipodi:nodetypes="cccccc" /><path
       style="fill:#db7e41;fill-opacity:1;stroke:none;stroke-width:0.752999;stroke-dasharray:none;stroke-opacity:1"
       d="M 59.729024,4.4190113 49.967048,31.506377 53.234904,59.603821 70.676614,6.5749861 h -8.572306 z"
       id="path16"
       sodipodi:nodetypes="cccccc" /><path
       style="fill:#cb9452;fill-opacity:1;stroke:none;stroke-width:0.752999;stroke-dasharray:none;stroke-opacity:1"
       d="M 42.406143,37.760996 50.055036,31.28608 43.777544,49.950505 Z"
       id="path19"
       sodipodi:nodetypes="cccc" /><path
       style="fill:#d0620b;fill-opacity:1;stroke:none;stroke-width:0.752999;stroke-dasharray:none;stroke-opacity:1"
       d="m 40.115703,88.923603 4.15922,-23.686468 -0.513122,-15.618318 6.292298,-18.335324 3.42352,28.196005 z"
       id="path20"
       sodipodi:nodetypes="cccccc" /><path
       style="fill:#c05c1a;fill-opacity:1;stroke:none;stroke-width:0.752999;stroke-dasharray:none;stroke-opacity:1"
       d="m 126.8717,54.272683 -65.852292,0.323448 -3.72315,9.056552 74.750612,-0.485174 z"
       id="path13"
       sodipodi:nodetypes="ccccc" /><path
       style="fill:#cb9857;fill-opacity:1;stroke:none;stroke-width:0.753;stroke-dasharray:none;stroke-opacity:1"
       d="M 89.985067,64.054215 H 94.84733 L 105.96828,95.06849 Z"
       id="path26"
       sodipodi:nodetypes="cccc" /><path
       style="fill:#cab5a0;fill-opacity:1;stroke:none;stroke-width:0.752999;stroke-dasharray:none;stroke-opacity:1"
       d="m 111.09851,64.274363 6.05156,-0.03245 17.53947,30.984107 -5.70706,-0.0682 z"
       id="path27"
       sodipodi:nodetypes="ccccc" /><path
       style="fill:#a18b74;fill-opacity:1;stroke:none;stroke-width:0.752999;stroke-dasharray:none;stroke-opacity:1"
       d="M 8.6414999,94.94508 32.98334,74.51876 l 10.7942,-24.896559 1.012728,15.456136 -4.317399,23.973806 -2.376358,5.50554 z"
       id="path14"
       sodipodi:nodetypes="ccccccc" /><path
       style="fill:none;stroke:#4286bd;stroke-width:1.8;stroke-linecap:square;stroke-linejoin:round;stroke-dasharray:none;stroke-opacity:1;paint-order:stroke fill markers"
       d="M 70.107874,53.504631 V 28.545526"
       id="path42"
       sodipodi:nodetypes="cc" /><path
       style="fill:none;stroke:#4286bd;stroke-width:1.8;stroke-linecap:square;stroke-linejoin:round;stroke-dasharray:none;stroke-opacity:1;paint-order:stroke fill markers"
       d="m 63.432082,40.527017 4.872104,0.0072"
       id="path43"
       sodipodi:nodetypes="cc" /><path
       style="fill:none;stroke:#4286bd;stroke-width:1.8;stroke-linecap:square;stroke-linejoin:round;stroke-dasharray:none;stroke-opacity:1;paint-order:stroke fill markers"
       d="m 65.540603,35.537244 1.464161,10e-7"
       id="path49"
       sodipodi:nodetypes="cc" /><path
       style="fill:none;stroke:#4286bd;stroke-width:1.8;stroke-linecap:square;stroke-linejoin:round;stroke-dasharray:none;stroke-opacity:1;paint-order:stroke fill markers"
       d="m 61.574698,45.213281 4.649852,0.0072 0.01777,8.122833"
       id="path44"
       sodipodi:nodetypes="ccc" /><path
       style="fill:none;stroke:#4286bd;stroke-width:1.8;stroke-linecap:square;stroke-linejoin:round;stroke-dasharray:none;stroke-opacity:1;paint-order:stroke fill markers"
       d="m 60.008371,49.452764 2.408679,0.0072 v 4.390513"
       id="path45"
       sodipodi:nodetypes="ccc" /><path
       style="fill:none;stroke:#4286bd;stroke-width:1.8;stroke-linecap:square;stroke-linejoin:round;stroke-dasharray:none;stroke-opacity:1;paint-order:stroke fill markers"
       d="m 74.227124,53.464717 0.0148,-12.897783 2.11675,0.02199"
       id="path46"
       sodipodi:nodetypes="ccc" /><path
       style="fill:none;stroke:#4286bd;stroke-width:1.8;stroke-linecap:square;stroke-linejoin:round;stroke-dasharray:none;stroke-opacity:1;paint-order:stroke fill markers"
       d="M 74.354624,37.305362 V 35.389287"
       id="path47"
       sodipodi:nodetypes="cc" /><path
       style="fill:none;stroke:#4286bd;stroke-width:1.8;stroke-linecap:square;stroke-linejoin:round;stroke-dasharray:none;stroke-opacity:1;paint-order:stroke fill markers"
       d="m 78.653834,52.950378 0.004,-2.989501 1.74868,0.01498"
       id="path48"
       sodipodi:nodetypes="ccc" /><path
       style="fill:#d5630a;fill-opacity:1;stroke:none;stroke-width:0.752999;stroke-dasharray:none;stroke-opacity:1"
       d="M 42.436887,37.727506 43.771967,49.627354 22.913625,72.97847 Z"
       id="path15"
       sodipodi:nodetypes="cccc" /><path
       style="fill:#886f59;fill-opacity:1;stroke:none;stroke-width:0.752999;stroke-dasharray:none;stroke-opacity:1"
       d="m 87.145904,42.564872 3.908787,10.91526 7.728358,-0.05191 z"
       id="path24"
       sodipodi:nodetypes="cccc" /><path
       style="fill:#ba7b41;fill-opacity:1;stroke:none;stroke-width:0.752999;stroke-dasharray:none;stroke-opacity:1"
       d="m 87.147524,42.572044 3.900207,-12.904412 13.810299,23.825303 -7.196965,0.193701 z"
       id="path17"
       sodipodi:nodetypes="ccccc" /><path
       style="fill:#000000;fill-opacity:1;stroke:#4286bd;stroke-width:1.8;stroke-linecap:square;stroke-linejoin:round;stroke-dasharray:none;stroke-opacity:1;paint-order:stroke fill markers"
       d="m 82.353194,65.597507 3.24212,-0.0036"
       id="path53"
       sodipodi:nodetypes="cc" /><path
       style="fill:#ba7b41;fill-opacity:1;stroke:none;stroke-width:0.752999;stroke-dasharray:none;stroke-opacity:1"
       d="m 107.36926,63.958927 9.12819,9.617056 -5.61797,-9.687725 z"
       id="path18"
       sodipodi:nodetypes="cccc" /><g
       id="g9"
       style="fill:#000000;fill-opacity:1"
       transform="translate(-30.809336,-16.562492)"><path
         style="fill:#000000;fill-opacity:1;stroke:none;stroke-width:0.752999;stroke-dasharray:none;stroke-opacity:1"
         d="m 32.955931,113.50753 54.343697,-94.851094 7.013901,2.895999 11.982331,-0.06685 7.00698,-3.194274 31.24394,52.360594 -2.72017,-0.01382 -29.48706,-49.203825 -5.28729,2.237457 -13.282179,0.058 -5.424951,-2.174323 -52.345872,91.957476 z"
         id="path3"
         sodipodi:nodetypes="ccccccccccccc" /><path
         style="fill:#000000;fill-opacity:1;stroke:none;stroke-width:0.752999;stroke-dasharray:none;stroke-opacity:1"
         d="m 52.769806,79.300203 -1.118161,1.798522 -15.886289,0.129497 6.51066,-11.375522 16.302178,0.101015 -0.803289,1.645795 -14.188346,0.01665 -4.483378,7.679876 z"
         id="path4"
         sodipodi:nodetypes="ccccccccc" /><path
         style="fill:#000000;fill-opacity:1;stroke:none;stroke-width:0.752999;stroke-dasharray:none;stroke-opacity:1"
         d="m 36.424631,111.12852 -1.483965,2.3847 133.591704,-0.1324 -1.29745,-2.25191 z"
         id="path5"
         sodipodi:nodetypes="ccccc" /><path
         style="fill:#000000;fill-opacity:1;stroke:none;stroke-width:0.752999;stroke-dasharray:none;stroke-opacity:1"
         d="m 70.814522,111.76599 -2.654513,-0.0135 31.964111,-72.481808 15.61801,31.303468 -2.50311,0.01491 -12.9458,-26.03695 z"
         id="path6"
         sodipodi:nodetypes="ccccccc" /><path
         style="fill:#000000;fill-opacity:1;stroke:none;stroke-width:0.752999;stroke-dasharray:none;stroke-opacity:1"
         d="m 87.611004,71.636025 0.482706,-1.838654 70.8171,-0.01132 6.63719,11.580271 -82.522696,0.02653 0.943535,-2.11908 78.194321,0.02383 -4.46773,-7.642409 z"
         id="path7"
         sodipodi:nodetypes="ccccccccc" /><path
         style="fill:#000000;fill-opacity:1;stroke:none;stroke-width:0.752999;stroke-dasharray:none;stroke-opacity:1"
         d="m 118.33122,80.371129 16.05911,31.623881 2.65966,0.0105 -15.96313,-31.615988 z"
         id="path8"
         sodipodi:nodetypes="ccccc" /><path
         style="fill:#000000;fill-opacity:1;stroke:none;stroke-width:0.752999;stroke-dasharray:none;stroke-opacity:1"
         d="m 146.46412,80.461563 h 2.66717 l 18.66069,31.630517 h -2.67124 z"
         id="path9"
         sodipodi:nodetypes="ccccc" /></g><path
       style="fill:#000000;fill-opacity:0;stroke:#4286bd;stroke-width:1.8;stroke-linecap:square;stroke-linejoin:round;stroke-dasharray:none;stroke-opacity:1;paint-order:stroke fill markers"
       d="m 53.555567,74.884395 3.626681,0.003"
       id="path52"
       sodipodi:nodetypes="cc" /><text
       xml:space="preserve"
       style="font-style:normal;font-variant:normal;font-weight:bold;font-stretch:normal;font-size:26.966px;font-family:Futura;-inkscape-font-specification:'Futura, Bold';font-variant-ligatures:normal;font-variant-caps:normal;font-variant-numeric:normal;font-variant-east-asian:normal;writing-mode:lr-tb;direction:ltr;fill:#2e2e2e;stroke:#242424;stroke-width:0.37712;stroke-linecap:square;stroke-linejoin:round;stroke-opacity:1;paint-order:stroke fill markers"
       x="14.670565"
       y="122.46095"
       id="text1"><tspan
         sodipodi:role="line"
         id="tspan1"
         style="font-style:normal;font-variant:normal;font-weight:bold;font-stretch:normal;font-size:26.966px;font-family:Futura;-inkscape-font-specification:'Futura, Bold';font-variant-ligatures:normal;font-variant-caps:normal;font-variant-numeric:normal;font-variant-east-asian:normal;stroke:#242424;stroke-width:0.37712;stroke-opacity:1"
         x="14.670565"
         y="122.46095"><tspan
           style="font-style:normal;font-variant:normal;font-weight:bold;font-stretch:normal;font-size:28.9278px;font-family:Futura;-inkscape-font-specification:'Futura, Bold';font-variant-ligatures:normal;font-variant-caps:normal;font-variant-numeric:normal;font-variant-east-asian:normal;stroke-width:0.37712"
           id="tspan5">a</tspan><tspan
           style="font-size:26.8111px"
           id="tspan7">RV</tspan><tspan
           style="font-size:28.9278px"
           id="tspan6">ern</tspan></tspan></text></g><metadata
     id="metadata1"><rdf:RDF><cc:Work
         rdf:about=""><dc:title>aRVern logo (dark grey)</dc:title></cc:Work></rdf:RDF></metadata></svg>
