<?xml version="1.0" encoding="UTF-8" standalone="no"?>
<!-- Created with Inkscape (http://www.inkscape.org/) -->

<svg
   width="140mm"
   height="133mm"
   viewBox="0 0 140 133"
   version="1.1"
   id="svg1"
   xml:space="preserve"
   sodipodi:docname="aRVern_dark_label.svg"
   inkscape:version="1.4.3 (0d15f75, 2025-12-25)"
   inkscape:export-filename="aRVern_dark_label.png"
   inkscape:export-xdpi="96"
   inkscape:export-ydpi="96"
   xmlns:inkscape="http://www.inkscape.org/namespaces/inkscape"
   xmlns:sodipodi="http://sodipodi.sourceforge.net/DTD/sodipodi-0.dtd"
   xmlns="http://www.w3.org/2000/svg"
   xmlns:svg="http://www.w3.org/2000/svg"
   xmlns:rdf="http://www.w3.org/1999/02/22-rdf-syntax-ns#"
   xmlns:cc="http://creativecommons.org/ns#"
   xmlns:dc="http://purl.org/dc/elements/1.1/"><sodipodi:namedview
     id="namedview1"
     pagecolor="#0d1117"
     bordercolor="#000000"
     borderopacity="0.25"
     inkscape:showpageshadow="2"
     inkscape:pageopacity="0.0"
     inkscape:pagecheckerboard="0"
     inkscape:deskcolor="#d1d1d1"
     inkscape:document-units="mm"
     inkscape:zoom="1.0718715"
     inkscape:cx="309.27215"
     inkscape:cy="316.26925"
     inkscape:window-width="1661"
     inkscape:window-height="1045"
     inkscape:window-x="49"
     inkscape:window-y="34"
     inkscape:window-maximized="1"
     inkscape:current-layer="g1" /><title
     id="title1">aRVern logo (dark grey)</title><desc
     id="desc1">aRVern wordmark with stylized RV mountain mark, dark grey variant for light backgrounds.</desc><defs
     id="defs1" /><g
     id="layer1"><path
       style="fill:#1a1a1a;fill-opacity:1;stroke:none;stroke-width:1.8;stroke-linecap:square;stroke-linejoin:round;stroke-dasharray:none;stroke-opacity:1;paint-order:stroke fill markers"
       d="M 37.415428,95.334607 52.540215,61.616074 88.340174,61.754832 105.13003,95.334607 Z"
       id="path51" /><path
       style="fill:#484b50;fill-opacity:1;stroke:none;stroke-width:0.752999;stroke-dasharray:none;stroke-opacity:1"
       d="M 60.406805,5.090553 57.859001,3.5520689 3.8687526,95.280427 9.6380653,95.472737 34.061506,75.04008 44.398513,47.779745 24.310266,70.375611 42.330862,37.971905 l 8.269354,-6.92318 z"
       id="path21"
       sodipodi:nodetypes="cccccccccc" /><path
       style="fill:#c05c1a;fill-opacity:1;stroke:none;stroke-width:0.752999;stroke-dasharray:none;stroke-opacity:1"
       d="m 11.563398,54.190879 -4.8517229,8.733102 10.7177849,0.323448 5.380891,-9.05655 z"
       id="path10"
       sodipodi:nodetypes="ccccc" /><path
       style="fill:#93440e;fill-opacity:1;stroke:none;stroke-width:0.752999;stroke-dasharray:none;stroke-opacity:1"
       d="m 26.206559,54.146884 -4.160835,0.205719 -5.583389,9.541724 h 4.848507 z"
       id="path11"
       sodipodi:nodetypes="ccccc" /><path
       style="fill:#4d5256;fill-opacity:1;stroke:none;stroke-width:0.752999;stroke-dasharray:none;stroke-opacity:1"
       d="m 79.141414,4.739389 1.84175,-1.1050531 29.700326,50.2606731 h -8.67826 z"
       id="path25"
       sodipodi:nodetypes="ccccc" /><path
       style="fill:#3f4448;fill-opacity:1;stroke:none;stroke-width:0.752999;stroke-dasharray:none;stroke-opacity:1"
       d="m 79.155634,4.3960703 -3.95013,1.5037371 9.68189,19.3292146 -3.93286,8.559739 -12.0299,-24.7538394 -15.847085,50.1378924 1.619409,-2.480969 14.227676,-32.272528 14.80603,29.380725 h 7.301677 L 86.895784,42.457766 90.994314,30.16287 Z"
       id="path23"
       sodipodi:nodetypes="ccccccccccccc" /><path
       style="fill:#191919;fill-opacity:1;stroke:none;stroke-width:1.8;stroke-linecap:square;stroke-linejoin:round;stroke-dasharray:none;stroke-opacity:1;paint-order:stroke fill markers"
       d="M 54.812994,55.279274 68.834196,24.640353 85.192264,56.837183 Z"
       id="path50" /><path
       style="fill:#4f5257;fill-opacity:1;stroke:none;stroke-width:0.752999;stroke-dasharray:none;stroke-opacity:1"
       d="m 68.844413,9.6700873 1.268181,-3.8225789 5.20669,-0.08918 10.13423,19.3481776 -4.48448,9.972424 z"
       id="path22"
       sodipodi:nodetypes="cccccc" /><g
       id="g33"
       transform="translate(-31.131776,-16.644294)"><path
         style="fill:none;stroke:#4286bd;stroke-width:1.8;stroke-linecap:butt;stroke-linejoin:round;stroke-dasharray:none;stroke-opacity:1"
         d="m 88.428475,96.722799 -0.0243,10.944871 4.011028,-0.009 v 3.46511"
         id="path1"
         sodipodi:nodetypes="cccc" /><path
         style="fill:none;stroke:#4286bd;stroke-width:1.8;stroke-linecap:square;stroke-linejoin:round;stroke-dasharray:none;stroke-opacity:1;paint-order:stroke fill markers"
         d="m 71.972727,108.01325 6.130564,-0.054 -0.01354,3.13"
         id="path2"
         sodipodi:nodetypes="ccc" /><path
         style="fill:none;stroke:#4286bd;stroke-width:1.8;stroke-linecap:square;stroke-linejoin:round;stroke-dasharray:none;stroke-opacity:1;paint-order:stroke fill markers"
         d="m 73.606573,104.81288 10.856731,-0.027 -0.02699,6.65688"
         id="path30"
         sodipodi:nodetypes="ccc" /><path
         style="fill:none;stroke:#4286bd;stroke-width:1.8;stroke-linecap:square;stroke-linejoin:round;stroke-dasharray:none;stroke-opacity:1;paint-order:stroke fill markers"
         d="m 75.105665,101.15354 h 9.37127 l -0.04062,-7.051298"
         id="path31"
         sodipodi:nodetypes="ccc" /><path
         style="fill:none;stroke:#4286bd;stroke-width:1.8;stroke-linecap:square;stroke-linejoin:round;stroke-dasharray:none;stroke-opacity:1;paint-order:stroke fill markers"
         d="m 76.882523,97.430461 3.769148,6.37e-4 -0.04053,-5.972789 13.514654,-0.02924 0.0025,-2.752753"
         id="path32"
         sodipodi:nodetypes="ccccc" /><path
         style="fill:none;stroke:#4286bd;stroke-width:1.8;stroke-linecap:square;stroke-linejoin:round;stroke-dasharray:none;stroke-opacity:1;paint-order:stroke fill markers"
         d="m 84.438113,81.688423 0.0028,7.1576"
         id="path33"
         sodipodi:nodetypes="cc" /></g><g
       id="g41"
       transform="translate(-31.131776,-16.644294)"><path
         style="fill:none;stroke:#4286bd;stroke-width:1.8;stroke-linecap:square;stroke-linejoin:round;stroke-dasharray:none;stroke-opacity:1;paint-order:stroke fill markers"
         d="m 113.52858,97.448181 3.73364,0.01095 3.80029,-3.886406 4.34979,0.0052"
         id="path36"
         sodipodi:nodetypes="cccc" /><path
         style="fill:none;stroke:#4286bd;stroke-width:1.8;stroke-linecap:square;stroke-linejoin:round;stroke-dasharray:none;stroke-opacity:1;paint-order:stroke fill markers"
         d="m 111.27333,101.1484 7.17094,-0.007 3.76013,-3.686444 5.13639,0.0023"
         id="path37"
         sodipodi:nodetypes="cccc" /><path
         style="fill:none;stroke:#4286bd;stroke-width:1.8;stroke-linecap:square;stroke-linejoin:round;stroke-dasharray:none;stroke-opacity:1;paint-order:stroke fill markers"
         d="m 108.85234,104.78513 9.61322,9.4e-4 -9.5e-4,6.88068"
         id="path38"
         sodipodi:nodetypes="ccc" /><path
         style="fill:none;stroke:#4286bd;stroke-width:1.8;stroke-linecap:square;stroke-linejoin:round;stroke-dasharray:none;stroke-opacity:1;paint-order:stroke fill markers"
         d="m 106.38433,107.94686 6.69104,-0.002 v 3.76507"
         id="path39"
         sodipodi:nodetypes="ccc" /><path
         style="fill:none;stroke:#4286bd;stroke-width:1.8;stroke-linecap:square;stroke-linejoin:round;stroke-dasharray:none;stroke-opacity:1;paint-order:stroke fill markers"
         d="m 129.49874,101.08169 h -5.16294 l -0.008,10.60813"
         id="path40"
         sodipodi:nodetypes="ccc" /><path
         style="fill:none;stroke:#4286bd;stroke-width:1.8;stroke-linecap:square;stroke-linejoin:round;stroke-dasharray:none;stroke-opacity:1;paint-order:stroke fill markers"
         d="m 130.91528,104.78229 h -2.73159 l 0.003,7.18754"
         id="path41"
         sodipodi:nodetypes="ccc" /></g><g
       id="g35"
       transform="translate(-31.131776,-16.644294)"><path
         style="fill:none;stroke:#4286bd;stroke-width:1.8;stroke-linecap:square;stroke-linejoin:round;stroke-dasharray:none;stroke-opacity:1;paint-order:stroke fill markers"
         d="m 103.46319,100.65876 -1e-5,-18.495833 h 14.95692 l 0.0334,7.478463 4.57388,-6e-6"
         id="path34"
         sodipodi:nodetypes="ccccc" /><path
         style="fill:none;stroke:#4286bd;stroke-width:1.8;stroke-linecap:square;stroke-linejoin:round;stroke-dasharray:none;stroke-opacity:1;paint-order:stroke fill markers"
         d="m 107.30796,94.448973 -0.005,-8.333576 5.17483,-4e-6"
         id="path35"
         sodipodi:nodetypes="ccc" /></g><path
       style="fill:#969a9e;fill-opacity:1;stroke:#1a1a1a;stroke-width:2.653;stroke-linecap:square;stroke-dasharray:none;stroke-opacity:1;paint-order:stroke fill markers"
       d="m 55.62641,64.570731 c 0,0 0.49714,-6.840835 9.663549,0.113733 8.699465,6.600294 3.874815,14.028677 3.874815,14.028677 0,0 -1.583893,2.85678 -3.77669,3.79715 -0.547521,0.2348 -0.08437,1.00241 0.494394,1.98907 0.578762,0.98667 1.273135,2.19238 1.998794,3.01382 1.451322,1.642882 2.028832,2.052699 3.164842,0.26754 2.77586,-4.36206 12.55744,-20.62064 12.55744,-20.62064 l 2.3793,6.741361 -13.87927,21.413715 -4.626424,0.13218 -10.318166,-16.592936 c 0,0 0.734282,0.82894 4.805694,0.0779 4.089841,-0.75447 4.69644,-5.100835 3.110237,-7.083591 -1.586201,-1.982753 -3.405995,-2.16987 -5.785298,-1.687608 -2.458024,0.498219 -3.708987,1.974905 -3.708987,1.974905 z"
       id="path29"
       sodipodi:nodetypes="cscsssscccccssscc" /><path
       style="fill:#734020;fill-opacity:1;stroke:none;stroke-width:0.752999;stroke-dasharray:none;stroke-opacity:1"
       d="m 61.138972,54.514327 h -4.777988 l -3.396205,8.733102 h 4.733994 z"
       id="path12"
       sodipodi:nodetypes="ccccc" /><path
       style="fill:#2c2f33;fill-opacity:1;stroke:none;stroke-width:0.752999;stroke-dasharray:none;stroke-opacity:1"
       d="m 94.250363,64.057655 h 13.681617 l 7.53483,7.034532 13.31516,23.765693 -23.82426,0.19829 z"
       id="path28"
       sodipodi:nodetypes="cccccc" /><path
       style="fill:#db7e41;fill-opacity:1;stroke:none;stroke-width:0.752999;stroke-dasharray:none;stroke-opacity:1"
       d="M 59.406584,4.3372073 49.644608,31.424573 52.912464,59.522017 70.354174,6.4931821 h -8.572306 z"
       id="path16"
       sodipodi:nodetypes="cccccc" /><path
       style="fill:#cb9452;fill-opacity:1;stroke:none;stroke-width:0.752999;stroke-dasharray:none;stroke-opacity:1"
       d="m 42.083703,37.679192 7.648893,-6.474916 -6.277492,18.664425 z"
       id="path19"
       sodipodi:nodetypes="cccc" /><path
       style="fill:#d0620b;fill-opacity:1;stroke:none;stroke-width:0.752999;stroke-dasharray:none;stroke-opacity:1"
       d="m 39.793263,88.841796 4.15922,-23.686465 -0.513122,-15.618318 6.292298,-18.335324 3.42352,28.196005 z"
       id="path20"
       sodipodi:nodetypes="cccccc" /><path
       style="fill:#c05c1a;fill-opacity:1;stroke:none;stroke-width:0.752999;stroke-dasharray:none;stroke-opacity:1"
       d="m 126.54922,54.190879 -65.852252,0.323448 -3.72315,9.056552 74.750572,-0.485174 z"
       id="path13"
       sodipodi:nodetypes="ccccc" /><path
       style="fill:#3f4448;fill-opacity:1;stroke:none;stroke-width:0.753;stroke-dasharray:none;stroke-opacity:1"
       d="m 89.66262,63.972411 h 4.862263 L 105.6458,94.98667 Z"
       id="path26"
       sodipodi:nodetypes="cccc" /><path
       style="fill:#4d5256;fill-opacity:1;stroke:none;stroke-width:0.752999;stroke-dasharray:none;stroke-opacity:1"
       d="m 110.77603,64.192559 6.05156,-0.03245 L 134.36706,95.1442 128.66,95.076 Z"
       id="path27"
       sodipodi:nodetypes="ccccc" /><path
       style="fill:#34373c;fill-opacity:1;stroke:none;stroke-width:0.752999;stroke-dasharray:none;stroke-opacity:1"
       d="M 8.3190602,94.86326 32.6609,74.436956 43.4551,49.540397 l 1.012728,15.456136 -4.317399,23.97381 -2.376358,5.50552 z"
       id="path14"
       sodipodi:nodetypes="ccccccc" /><path
       style="fill:none;stroke:#4286bd;stroke-width:1.8;stroke-linecap:square;stroke-linejoin:round;stroke-dasharray:none;stroke-opacity:1;paint-order:stroke fill markers"
       d="M 69.785434,53.422827 V 28.463722"
       id="path42"
       sodipodi:nodetypes="cc" /><path
       style="fill:none;stroke:#4286bd;stroke-width:1.8;stroke-linecap:square;stroke-linejoin:round;stroke-dasharray:none;stroke-opacity:1;paint-order:stroke fill markers"
       d="m 63.109642,40.445213 4.872104,0.0072"
       id="path43"
       sodipodi:nodetypes="cc" /><path
       style="fill:none;stroke:#4286bd;stroke-width:1.8;stroke-linecap:square;stroke-linejoin:round;stroke-dasharray:none;stroke-opacity:1;paint-order:stroke fill markers"
       d="m 65.218163,35.45544 1.464161,10e-7"
       id="path49"
       sodipodi:nodetypes="cc" /><path
       style="fill:none;stroke:#4286bd;stroke-width:1.8;stroke-linecap:square;stroke-linejoin:round;stroke-dasharray:none;stroke-opacity:1;paint-order:stroke fill markers"
       d="m 61.252258,45.131477 4.649852,0.0072 0.01777,8.122833"
       id="path44"
       sodipodi:nodetypes="ccc" /><path
       style="fill:none;stroke:#4286bd;stroke-width:1.8;stroke-linecap:square;stroke-linejoin:round;stroke-dasharray:none;stroke-opacity:1;paint-order:stroke fill markers"
       d="m 59.685931,49.37096 2.408679,0.0072 v 4.390513"
       id="path45"
       sodipodi:nodetypes="ccc" /><path
       style="fill:none;stroke:#4286bd;stroke-width:1.8;stroke-linecap:square;stroke-linejoin:round;stroke-dasharray:none;stroke-opacity:1;paint-order:stroke fill markers"
       d="m 73.904684,53.382913 0.0148,-12.897783 2.11675,0.02199"
       id="path46"
       sodipodi:nodetypes="ccc" /><path
       style="fill:none;stroke:#4286bd;stroke-width:1.8;stroke-linecap:square;stroke-linejoin:round;stroke-dasharray:none;stroke-opacity:1;paint-order:stroke fill markers"
       d="M 74.032184,37.223558 V 35.307483"
       id="path47"
       sodipodi:nodetypes="cc" /><path
       style="fill:none;stroke:#4286bd;stroke-width:1.8;stroke-linecap:square;stroke-linejoin:round;stroke-dasharray:none;stroke-opacity:1;paint-order:stroke fill markers"
       d="m 78.331394,52.868574 0.004,-2.989501 1.74868,0.01498"
       id="path48"
       sodipodi:nodetypes="ccc" /><path
       style="fill:#d5630a;fill-opacity:1;stroke:none;stroke-width:0.752999;stroke-dasharray:none;stroke-opacity:1"
       d="M 42.114447,37.645702 43.449527,49.54555 22.591185,72.896666 Z"
       id="path15"
       sodipodi:nodetypes="cccc" /><path
       style="fill:#2c2f33;fill-opacity:1;stroke:none;stroke-width:0.752999;stroke-dasharray:none;stroke-opacity:1"
       d="m 86.823464,42.483068 3.90879,10.91526 7.728325,-0.05191 z"
       id="path24"
       sodipodi:nodetypes="cccc" /><path
       style="fill:#353a3e;fill-opacity:1;stroke:none;stroke-width:0.752999;stroke-dasharray:none;stroke-opacity:1"
       d="m 86.825084,42.49024 3.90021,-12.904412 13.810256,23.825303 -7.196942,0.193701 z"
       id="path17"
       sodipodi:nodetypes="ccccc" /><path
       style="fill:#000000;fill-opacity:1;stroke:#4286bd;stroke-width:1.8;stroke-linecap:square;stroke-linejoin:round;stroke-dasharray:none;stroke-opacity:1;paint-order:stroke fill markers"
       d="m 82.030754,65.515703 3.24212,-0.0036"
       id="path53"
       sodipodi:nodetypes="cc" /><path
       style="fill:#3f4246;fill-opacity:1;stroke:none;stroke-width:0.752999;stroke-dasharray:none;stroke-opacity:1"
       d="m 107.04678,63.877123 9.12819,9.617056 -5.61797,-9.687725 z"
       id="path18"
       sodipodi:nodetypes="cccc" /><g
       id="g9"
       style="fill:#000000;fill-opacity:1"
       transform="translate(-31.131776,-16.644294)"><path
         style="fill:#000000;fill-opacity:1;stroke:none;stroke-width:0.752999;stroke-dasharray:none;stroke-opacity:1"
         d="m 32.955931,113.50753 54.343697,-94.851094 7.013901,2.895999 11.982331,-0.06685 7.00698,-3.194274 31.24394,52.360594 -2.72017,-0.01382 -29.48706,-49.203825 -5.28729,2.237457 -13.282179,0.058 -5.424951,-2.174323 -52.345872,91.957476 z"
         id="path3"
         sodipodi:nodetypes="ccccccccccccc" /><path
         style="fill:#000000;fill-opacity:1;stroke:none;stroke-width:0.752999;stroke-dasharray:none;stroke-opacity:1"
         d="m 52.769806,79.300203 -1.118161,1.798522 -15.886289,0.129497 6.51066,-11.375522 16.302178,0.101015 -0.803289,1.645795 -14.188346,0.01665 -4.483378,7.679876 z"
         id="path4"
         sodipodi:nodetypes="ccccccccc" /><path
         style="fill:#000000;fill-opacity:1;stroke:none;stroke-width:0.752999;stroke-dasharray:none;stroke-opacity:1"
         d="m 36.424631,111.12852 -1.483965,2.3847 133.591704,-0.1324 -1.29745,-2.25191 z"
         id="path5"
         sodipodi:nodetypes="ccccc" /><path
         style="fill:#000000;fill-opacity:1;stroke:none;stroke-width:0.752999;stroke-dasharray:none;stroke-opacity:1"
         d="m 70.814522,111.76599 -2.654513,-0.0135 31.964111,-72.481808 15.61801,31.303468 -2.50311,0.01491 -12.9458,-26.03695 z"
         id="path6"
         sodipodi:nodetypes="ccccccc" /><path
         style="fill:#000000;fill-opacity:1;stroke:none;stroke-width:0.752999;stroke-dasharray:none;stroke-opacity:1"
         d="m 87.611004,71.636025 0.482706,-1.838654 70.8171,-0.01132 6.63719,11.580271 -82.522696,0.02653 0.943535,-2.11908 78.194321,0.02383 -4.46773,-7.642409 z"
         id="path7"
         sodipodi:nodetypes="ccccccccc" /><path
         style="fill:#000000;fill-opacity:1;stroke:none;stroke-width:0.752999;stroke-dasharray:none;stroke-opacity:1"
         d="m 118.33122,80.371129 16.05911,31.623881 2.65966,0.0105 -15.96313,-31.615988 z"
         id="path8"
         sodipodi:nodetypes="ccccc" /><path
         style="fill:#000000;fill-opacity:1;stroke:none;stroke-width:0.752999;stroke-dasharray:none;stroke-opacity:1"
         d="m 146.46412,80.461563 h 2.66717 l 18.66069,31.630517 h -2.67124 z"
         id="path9"
         sodipodi:nodetypes="ccccc" /></g><path
       style="fill:#000000;fill-opacity:1;stroke:#4286bd;stroke-width:1.8;stroke-linecap:square;stroke-linejoin:round;stroke-dasharray:none;stroke-opacity:1;paint-order:stroke fill markers"
       d="m 53.233127,74.802591 3.626681,0.003"
       id="path52"
       sodipodi:nodetypes="cc" /><g
       id="g1"
       transform="matrix(0.66127669,0,0,0.66127669,22.226573,40.237053)"><path
         style="fill:#d0620b;fill-opacity:1;stroke:#ff6600;stroke-width:0.269732;stroke-opacity:1"
         d="M 12.368946,112.92273 V 93.75338 l 9.642964,0.10234 c 8.05425,0.0855 9.902,0.17773 11.215248,0.55988 6.054474,1.76188 8.830503,5.61937 8.479105,11.78233 -0.270854,4.75036 -2.614681,7.91691 -6.880236,9.29529 -1.226804,0.39644 -1.379667,0.52175 -1.15304,0.94521 0.143695,0.26849 2.326788,3.90041 4.851312,8.07091 l 4.59005,7.58273 h -4.928505 -4.928502 l -4.018267,-7.68739 -4.018269,-7.6874 h -2.245064 -2.245066 v 7.6874 7.68739 h -4.180864 -4.180866 z m 18.674773,-3.85412 c 1.581129,-0.78606 2.178923,-1.9955 2.042816,-4.13299 -0.103672,-1.62816 -0.192733,-1.84701 -1.084006,-2.6638 -1.354447,-1.24126 -2.448764,-1.46557 -7.158421,-1.46729 l -4.113432,-0.002 v 4.47288 4.47288 l 4.652899,-0.0897 c 3.868661,-0.0746 4.822666,-0.17412 5.660144,-0.59047 z"
         id="path4-0" /><path
         style="fill:#d0620b;fill-opacity:1;stroke:#ff6600;stroke-width:0.269732;stroke-opacity:1"
         d="m 59.290976,131.48518 c -0.148344,-0.33379 -3.593147,-8.92142 -7.655121,-19.08362 l -7.385407,-18.47672 4.606425,-0.074 c 3.11934,-0.0501 4.665308,0.0213 4.788824,0.22112 0.100319,0.16232 2.280994,5.87013 4.845941,12.68403 2.56495,6.8139 4.73988,12.38891 4.83317,12.38891 0.0933,0 2.35198,-5.70368 5.0193,-12.67485 l 4.84967,-12.67484 4.40564,-0.003 c 2.42311,-10e-4 4.36519,0.10381 4.31573,0.23387 -0.0495,0.13007 -3.60211,8.74805 -7.8948,19.15106 l -7.80489,18.91457 h -3.32739 c -3.190874,0 -3.33844,-0.0249 -3.597092,-0.6069 z"
         id="path5-2" /><path
         style="fill:#969a9e;fill-opacity:1;stroke:#969a9e;stroke-width:0.269732;stroke-opacity:1"
         d="m -12.648622,132.4845 c -2.809845,-0.75663 -4.639274,-2.10908 -5.821317,-4.30356 -0.83972,-1.55895 -0.837354,-5.45392 0.0043,-7.03146 1.854346,-3.47578 5.93542,-5.13347 13.3693956,-5.43052 2.1882114,-0.0874 3.9785645,-0.20897 3.9785645,-0.27008 0,-0.0611 -0.1354297,-0.64895 -0.3009528,-1.3063 -0.373465,-1.48317 -1.8882064,-2.93192 -3.5274578,-3.37381 -2.3039754,-0.62106 -5.3548395,0.1733 -7.3316575,1.90897 l -1.017667,0.89352 -2.070563,-2.08343 -2.070562,-2.08343 0.809199,-0.67482 c 2.97532,-2.48123 8.1466062,-3.79797 12.9885213,-3.3072 5.208054,0.52789 8.2710098,3.23476 9.2707405,8.19297 0.191367,0.94911 0.3825837,5.10428 0.4623717,10.04756 l 0.136057,8.42916 H 2.556335 -1.1176789 v -1.61839 c 0,-0.89012 -0.07939,-1.6184 -0.1764237,-1.6184 -0.09703,0 -0.585769,0.47822 -1.0860778,1.06272 -2.046501,2.39088 -6.6487904,3.54118 -10.2684116,2.5665 z m 8.6875402,-5.78168 c 1.7450564,-0.84476 2.5404121,-2.12956 2.7575082,-4.45437 l 0.1720107,-1.84204 -3.0969699,0.17688 c -3.618349,0.20666 -5.3958951,0.67294 -6.4631032,1.69539 -1.581713,1.51538 -1.246413,3.82562 0.6870462,4.7338 1.462687,0.68705 4.1766679,0.54566 5.943508,-0.30966 z"
         id="path6-4" /><path
         style="fill:#969a9e;fill-opacity:1;stroke:#969a9e;stroke-width:0.2;stroke-dasharray:none;stroke-opacity:1"
         d="m 93.65216,132.60598 c -6.80429,-1.13678 -11.692042,-6.716 -11.692042,-13.34609 0,-7.41831 4.968632,-12.8974 12.549292,-13.83854 5.5166,-0.68489 10.17855,1.51928 12.52511,5.92187 1.20741,2.26534 1.61637,3.91886 1.81277,7.32963 l 0.16696,2.89963 h -9.59711 -9.59711 l 0.24965,0.87663 c 0.39863,1.39983 1.66256,2.98083 2.95347,3.69439 0.9186,0.50777 1.59984,0.66133 2.95509,0.66611 2.30909,0.008 3.51701,-0.44004 4.95644,-1.83901 l 1.18196,-1.14873 2.53177,1.84663 c 1.39247,1.01565 2.57459,1.97322 2.62694,2.12792 0.15928,0.47071 -2.04774,2.30369 -4.02452,3.34246 -2.96615,1.55866 -6.14366,2.04433 -9.59867,1.4671 z m 7.1254,-17.61733 c -0.16096,-1.42807 -0.94318,-2.60171 -2.28794,-3.43281 -0.77356,-0.47809 -1.38455,-0.61249 -2.75994,-0.6071 -2.03368,0.008 -3.5711,0.66004 -4.68921,1.98883 -0.58858,0.69949 -1.25111,2.30122 -1.25659,3.03795 -7.9e-4,0.11126 2.50257,0.2023 5.56311,0.2023 h 5.56461 z"
         id="path7-8" /><path
         style="fill:#969a9e;fill-opacity:1;stroke:#969a9e;stroke-width:0.269732;stroke-opacity:1"
         d="m 114.05837,119.01002 v -13.08206 h 4.03508 4.0351 l 0.0783,2.2253 0.0783,2.22529 0.45085,-0.82228 c 0.71571,-1.30532 2.60197,-3.09787 3.82271,-3.63279 1.11611,-0.48907 2.7819,-0.68602 4.9648,-0.58699 l 1.14637,0.052 v 3.63465 3.63466 l -0.87664,-0.19556 c -1.16016,-0.2588 -4.12455,-0.24562 -5.41075,0.0241 -0.5779,0.12117 -1.49939,0.6417 -2.10569,1.18945 -1.91831,1.73307 -1.96119,1.95416 -2.06823,10.66149 l -0.0953,7.75483 h -4.02749 -4.02747 z"
         id="path8-3" /><path
         style="fill:#969a9e;fill-opacity:1;stroke:#969a9e;stroke-width:0.269999;stroke-dasharray:none;stroke-opacity:1"
         d="m 137.25542,119.01002 v -13.08206 h 3.91113 3.91113 v 1.78392 1.78392 l 1.28124,-1.36467 c 2.10954,-2.24692 4.92025,-3.16538 8.36371,-2.733 3.16247,0.3971 5.2573,1.74537 6.52015,4.19652 1.15801,2.24766 1.35789,4.25155 1.36288,13.66366 l 0.005,8.83376 h -3.8903 -3.89029 l -0.0883,-8.15942 c -0.0831,-7.68586 -0.12203,-8.23248 -0.66994,-9.41791 -0.31992,-0.69217 -0.86612,-1.44466 -1.2138,-1.67221 -1.55781,-1.01955 -4.33068,-0.76922 -5.87522,0.53043 -1.44767,1.21813 -1.6351,2.4883 -1.6351,11.08068 v 7.63843 h -4.046 -4.046 z"
         id="path9-9" /></g></g><metadata
     id="metadata1"><rdf:RDF><cc:Work
         rdf:about=""><dc:title>aRVern logo (dark grey)</dc:title></cc:Work></rdf:RDF></metadata></svg>
